<?xml version="1.0" encoding="utf-8"?>
<!-- Generator: Adobe Illustrator 26.0.0, SVG Export Plug-In . SVG Version: 6.00 Build 0)  -->
<svg version="1.1" id="Layer_1" xmlns="http://www.w3.org/2000/svg" xmlns:xlink="http://www.w3.org/1999/xlink" x="0px" y="0px"
	 viewBox="0 0 483.31 228.21" style="enable-background:new 0 0 483.31 228.21;" xml:space="preserve">
<style type="text/css">
	.st0{fill:#FFFFFF;}
	.st1{fill:#FFDC7E;}
</style>
<path class="st0" d="M120.5,72.93c-0.08-1.25-0.35-2.43-0.79-3.54c-0.33-0.94-0.83-1.83-1.5-2.67c-0.67-0.83-1.42-1.55-2.25-2.17
	c-1.78-1.28-3.86-2.14-6.25-2.58c0.94-0.33,1.86-0.69,2.75-1.08c0.89-0.39,1.72-0.89,2.5-1.5c0.94-0.67,1.83-1.47,2.66-2.42
	c0.83-0.94,1.47-1.97,1.92-3.08c0.39-0.94,0.64-1.94,0.75-3c0.11-1.05,0.14-2.08,0.08-3.08c-0.06-1.11-0.17-2.21-0.33-3.29
	c-0.17-1.08-0.45-2.15-0.83-3.21c-0.33-0.94-0.81-1.87-1.42-2.79c-0.61-0.92-1.33-1.68-2.17-2.29c-1.72-1.28-3.61-2.28-5.66-3
	c-2.05-0.72-4.14-1.3-6.25-1.75c-0.61-0.11-1.6-0.19-2.96-0.25c-1.36-0.05-2.9-0.1-4.62-0.13c-1.72-0.03-3.54-0.03-5.46,0
	c-1.92,0.03-3.73,0.07-5.46,0.13c-1.72,0.06-3.28,0.11-4.66,0.17c-1.39,0.06-2.39,0.08-3,0.08c-1.94,0.06-3.86,0.04-5.75-0.04
	c-1.89-0.08-6.25,0.07-8.08,0.46c-0.45,0.11-0.87,0.29-1.29,0.54c-0.42,0.25-0.49,0.57-0.21,0.96c0,0.61,0.01,1.72,0.04,3.33
	c0.03,1.61,0.07,3.46,0.12,5.54c0.05,2.08,0.11,4.29,0.17,6.62c0.05,2.33,0.11,4.55,0.17,6.66c0.05,2.11,0.1,3.97,0.12,5.58
	c0.03,1.61,0.07,2.72,0.13,3.33c0.17,3.83,0.28,7.66,0.33,11.49c0.05,3.83,0.14,7.66,0.25,11.49c0,0.94,0.01,1.86,0.04,2.75
	c0.03,0.89-0.01,1.8-0.13,2.75c0,0.55,0.28,0.83,0.83,0.83c0.33,0.17,0.83,0.28,1.5,0.33c0.67,0.05,1.39,0.08,2.17,0.08
	c0.78,0,4.02-0.01,4.75-0.04c0.72-0.03,1.25-0.04,1.58-0.04c1.11-0.11,2.19-0.2,3.25-0.25c1.05-0.06,2.14-0.11,3.25-0.17
	c0.55,0,1.43-0.03,2.62-0.08c1.19-0.06,2.57-0.12,4.12-0.21c1.55-0.08,3.19-0.18,4.91-0.29c1.72-0.11,3.34-0.21,4.87-0.29
	c1.53-0.08,2.9-0.18,4.12-0.29c1.22-0.11,2.08-0.22,2.58-0.33c4-0.83,7.72-2.42,11.16-4.75c1.5-0.94,2.67-2.14,3.5-3.58
	c0.61-1.11,1.07-2.28,1.37-3.5c0.3-1.22,0.49-2.47,0.54-3.75C120.63,75.42,120.59,74.18,120.5,72.93z M82.73,51.07
	c0-1.83,0-3.66,0-5.5c1.67-0.11,3.33-0.12,5-0.04c1.67,0.08,3.3,0.21,4.91,0.37c0.83,0.11,1.65,0.29,2.46,0.54
	c0.8,0.25,1.51,0.61,2.12,1.08c0.61,0.47,1.08,1.01,1.42,1.62c0.33,0.61,0.42,1.33,0.25,2.17c-0.11,0.61-0.35,1.15-0.71,1.62
	c-0.36,0.47-0.76,0.9-1.21,1.29c-0.89,0.67-1.97,1.08-3.25,1.25c-1.78,0.39-3.58,0.61-5.41,0.67c-1.83,0.06-3.66,0.2-5.5,0.42
	C82.76,54.74,82.73,52.9,82.73,51.07z M100.72,73.64c-0.44,0.78-1.11,1.37-2,1.79c-0.89,0.42-1.81,0.71-2.75,0.87
	c-0.44,0.06-1.26,0.13-2.46,0.21c-1.19,0.08-2.49,0.15-3.87,0.21c-1.39,0.06-2.69,0.11-3.91,0.17c-1.22,0.06-2.03,0.08-2.42,0.08
	c-0.17-3.17-0.25-6.36-0.25-9.58c0.33-0.05,0.92-0.12,1.75-0.21c0.83-0.08,1.73-0.15,2.71-0.21c0.97-0.05,1.87-0.1,2.71-0.12
	c0.83-0.03,1.42-0.04,1.75-0.04c0.78,0.06,1.54,0.1,2.29,0.12c0.75,0.03,1.48,0.15,2.21,0.37c0.55,0.17,1.32,0.54,2.29,1.12
	c0.97,0.58,1.6,1.15,1.87,1.71c0.22,0.39,0.36,0.96,0.42,1.71C101.11,72.6,101,73.2,100.72,73.64z"/>
<path class="st0" d="M159.34,91.64c-18.9-0.07-9.97,3.43-20-17.99h-2.31c-0.68,3.65,0.88,15.97-1.33,17.53
	c-3.86-0.09-8.54,0.72-12.05-1.04c-1.23-13.13,0.27-26.86,0.38-40.15c0.75-3.16-1.13-21.6,2.19-20.45
	c8.75,0.75,17.54-1.43,26.13,1.12c13.72,4.47,13.09,36.63,0.06,41.81C153.03,74.8,161.64,91.34,159.34,91.64z M137.44,60.4
	c6.71,1.18,12.69,0.75,12.84-8.66c0.27-7.46-7.27-7.42-12.13-7.33C137.98,48.85,137.64,55.97,137.44,60.4z"/>
<path class="st0" d="M206.56,91.35c-5.66,0.22-11.27,0.25-16.82,0.08c-5.55-0.17-11.13-0.31-16.74-0.42c-0.39,0-0.9,0.01-1.54,0.04
	c-0.64,0.03-1.31,0.01-2-0.04c-0.7-0.06-1.33-0.14-1.92-0.25c-0.58-0.11-1.01-0.3-1.29-0.58c-0.22-0.22-0.36-0.51-0.42-0.87
	c-0.06-0.36-0.08-0.71-0.08-1.04c-0.39-8.83-0.4-17.66-0.04-26.48c0.36-8.83,0.54-17.66,0.54-26.48c0-0.28-0.01-0.67-0.04-1.17
	c-0.03-0.5-0.03-1.03,0-1.58c0.03-0.55,0.08-1.05,0.17-1.5c0.08-0.44,0.24-0.78,0.46-1c0.22-0.17,0.58-0.29,1.08-0.37
	c0.5-0.08,1.03-0.14,1.58-0.17c0.55-0.03,1.1-0.03,1.62,0c0.53,0.03,0.96,0.04,1.29,0.04c6.05,0.11,12.05,0.06,17.99-0.17
	c5.94-0.22,11.94-0.25,17.99-0.08c0.28,0,0.61,0.03,1,0.08c0.39,0.06,0.64,0.22,0.75,0.5c0.05,0.11,0.1,0.39,0.13,0.83
	c0.03,0.44,0.04,0.72,0.04,0.83c0.05,1.44,0.04,2.87-0.04,4.29c-0.08,1.42-0.18,2.85-0.29,4.29c0,0.39,0.01,0.92,0.04,1.58
	c0.03,0.67,0.03,1.33,0,2c-0.03,0.67-0.1,1.29-0.21,1.87c-0.11,0.58-0.33,0.99-0.67,1.21c-0.28,0.28-0.64,0.39-1.08,0.33
	c-0.44-0.05-0.86-0.11-1.25-0.17c-3.55-0.28-7.08-0.35-10.58-0.21c-3.5,0.14-7.02,0.21-10.58,0.21c-0.06,0.94-0.1,1.92-0.12,2.92
	c-0.03,1-0.07,1.97-0.12,2.92c2-0.05,3.98,0,5.95,0.17c1.97,0.17,3.93,0.2,5.87,0.08c0.39,0,1-0.04,1.83-0.12
	c0.83-0.08,1.68-0.14,2.54-0.17c0.86-0.03,1.69-0.01,2.5,0.04c0.8,0.06,1.37,0.17,1.71,0.33c0.33,0.17,0.55,0.44,0.67,0.83
	c0.11,0.39,0.17,0.83,0.17,1.33c0,0.5-0.03,1-0.08,1.5c-0.06,0.5-0.08,0.92-0.08,1.25c-0.06,1.11-0.1,2.25-0.12,3.41
	c-0.03,1.17-0.07,2.3-0.12,3.41c0,0.67-0.1,1.39-0.29,2.17c-0.2,0.78-0.62,1.22-1.29,1.33c-0.45,0.06-1.31,0.06-2.58,0
	c-1.28-0.05-2.62-0.11-4.04-0.17c-1.42-0.05-2.76-0.11-4.04-0.17c-1.28-0.05-2.14-0.08-2.58-0.08c-1.11-0.05-2.19-0.04-3.25,0.04
	c-1.06,0.08-2.14,0.15-3.25,0.21v5.83c3.28-0.05,6.52-0.08,9.74-0.08c3.22,0,6.47,0,9.74,0c0.67,0,1.42,0,2.25,0
	c0.83,0,1.3,0.33,1.42,1c0.33,1.94,0.37,3.91,0.13,5.91c-0.25,2-0.37,3.97-0.37,5.91c0,0.5,0.03,1.01,0.08,1.54
	c0.05,0.53,0.05,1.01,0,1.46c-0.06,0.44-0.18,0.82-0.37,1.12C207.32,91.2,207,91.35,206.56,91.35z"/>
<path class="st0" d="M265.3,97.04c0.03,4.62-14.94-2.99-17.62-3.3c-2.39-1.61-0.02-8.98-0.12-11.75
	c-4.96-1.97-10.09-3.44-15.05-5.41c-1.76,1.9-5.83,16.93-8.58,16.53c-4.14-0.6-5.32,0.27-9.46-1.24c-1.52-0.55-3.92-1.38-4.64-5.74
	c-0.14-0.83-0.96-6.18,0.71-9.78c2.01-4.33,3.44-6.32,6.47-10.04c3.03-3.72,5.39-7.53,7.98-11.58c5.59-8.76,5.23-10.71,11.29-18.16
	c1.07-1.15,4.19-5.74,6.09-5.75c9.42-0.06,17.36-0.54,22.56,2.02c1.25,0.57,1.76,0.83,2.48,1.87c2.32,5.17,5.88,5.13,5.43,30.11
	C271.71,85.88,265.3,97.04,265.3,97.04z M240.16,65.82c3.13,0.83,6.05,1.93,9.04,3.18c0.6-5.64,1.36-11.14,1.26-16.82
	C246.8,56.61,243.52,61.14,240.16,65.82z"/>
<path class="st1" d="M314.44,86.89c-0.84,1.16,0.57,2.6,1.75,1.8c3.32-2.25,6.64-4.66,7.16-5.02c1.44-0.97,2.48-1.35,1.91,3.5
	c-0.79,5.39-3.32,8.46-6.59,11.72c-4.05,3.75-8.51,5.52-13.38,5.29c-2.26-0.21-4.08-1.46-5.47-3.77c-0.47-1.19-0.53-2.44-0.21-3.74
	c0-2.34,1.48-6.13,4.44-11.36c3.05-6.09,4.47-10.08,4.26-11.96c-0.86-1.22-2.01-1.83-3.43-1.83c-4.32,0.59-6.48,1.2-6.48,1.83
	c-0.83,10.33-5.81,21.73-7.02,26.28c-2.05,5.94-4.28,8.91-6.69,8.91c-3.2,0-6.92-1.15-11.16-3.43c-1.48-0.83-2.57-2.38-3.25-4.67
	l-0.21-1.01c2.94-10.93,8.93-23.08,8.44-39.86c-0.32-10.77-1.35-21.46-4.05-32.05c-0.81-2.34-1.35-4.64-1.63-6.9
	c0-3.7,3.45-7.28,10.36-10.74c2.22-1.29,4.17-2.04,5.86-2.25c5.06,0,8.11,3.86,9.14,11.57c0.67,17.56,1.08,28.04,1.21,31.43
	c0.03,0.28,0.17,0.41,0.41,0.41c0.31-0.15,0.92-0.72,1.83-1.7c2.12-2.28,3.99-4.78,5.62-7.43c2.09-3.37,3.66-5.73,4.71-7.09
	c0.76-0.81,1.57-1.21,2.43-1.21c1.55,0,3.3,1.25,5.24,3.74c1.73,2.22,3,4.81,3.58,7.57c0.14,0.65,0.24,1.27,0.29,1.86
	c0,3.46-1.41,5.76-4.24,6.89c-5.03,1.67-9.65,4.17-13.87,7.49c2.13-1.02,4.73-1.69,7.77-2.01h1.63c4.24,0,7.14,1.69,8.7,5.06
	c0.52,1.36,0.72,2.65,0.62,3.87c-0.53,3.81-2.9,8.88-7.1,15.21L314.44,86.89z"/>
<path class="st1" d="M330.08,53.52c-1.09-1.21-1.78-2.62-2.07-4.25V47.8c1.59-9.31,3.65-13.97,6.17-13.97h0.45
	c1.55,0,3.02,0.49,4.4,1.47c1.69,1.54,2.97,3.7,3.82,6.47c0.86,2.11,1.45,4.66,1.77,7.63c0,4.33-2.01,6.49-6.02,6.49
	C334.74,55.89,331.89,55.1,330.08,53.52z M331.04,90.41c-1.16-1.03-1.84-5.32-2.05-12.86v-1.02c0.87-9.95,2.37-15.5,4.5-16.65
	l0.57-0.09c3.37,0.57,5.98,1.52,7.86,2.87c1.61,0.97,2.51,5.82,2.7,14.54c0.03,2.42-0.03,5-0.17,7.72c0,1.8-0.44,4.66-1.33,8.57
	c-0.28,2.06-1.16,3.09-2.65,3.09C335.89,95.2,332.75,93.14,331.04,90.41z"/>
<path class="st1" d="M360.33,43.46c1.48,0.09,2.22,0.64,2.22,1.65l-0.02,6.66c8.05-4.83,13.78-6.93,17.19-6.29
	c2.31,0.45,3.64,2.55,4,6.29c0,2.38-0.67,6.93-2.02,13.67c-2.57,12.34-3.85,19.31-3.85,20.91c0.17,0.74,0.49,1.04,0.94,0.91
	c1.03-0.49,1.74-0.74,2.13-0.74c1.57,0.04,2.11,1.17,1.63,3.37c-0.68,2.95-5.19,5.61-13.53,8.01c-2.58,0.28-3.95-0.8-4.11-3.24
	c-0.19-2.67,0.28-7.71,1.39-15.12c0.75-3.93,1.31-7.83,1.68-11.68c0.38-2-0.53-3.03-2.72-3.09c-1.83,0.49-2.52,1.77-2.74,3.81
	c-0.3,2.71-0.36,3.59-0.77,5.61c-0.93,4.5-1.12,7.12-3.13,7.57c-5.19,1.43-5.69,4.21-7.66,4.21c-0.91,0-1.71-4.32-2.03-9.5
	c-0.49-9.41-0.4-8.75-0.4-10.29c0-2.76,0.06-9.04,0.17-18.84c0.36-1.38,1.45-2.2,3.26-2.46C355.06,43.83,357.85,43.36,360.33,43.46z
	"/>
<path class="st1" d="M419.54,38.09c1.22-0.09,2.21,3.55,2.98,10.92c1.22,12.23,1.63,21.83,1.24,28.79
	c-0.29,4.61-1.18,8.54-2.65,11.77c-4.56,9.66-11.68,14.07-21.39,13.23c-4.44-0.8-6.59-1.3-9.33-3.09c-4.15-2.72-5.86-5.84-6.08-7.72
	c0.09-1.68,3.04-5.44,6.25-8.53c4.31-4.16,6.52-5.25,8.44-4.29c2.64,1.31,3.3,1.66,4.56,4.85c1.15,1.89,2.61,1.73,5.1,1.87
	c2.96,0.77,4.34-2.79,4.13-10.68c-0.04-2-0.17-3.33-0.37-3.98c-4.25,4.03-9.32,5.27-15.21,3.7c-3.32-1.6-5.45-3.47-6.4-5.64
	c-0.94-2.54-1.41-5.23-1.41-8.07c0.09-8.63,2.9-14.19,8.44-16.69c4.61-0.84,8.69,0.12,12.23,2.87c-0.03-1.42-0.34-3.21-0.94-5.37
	c0-0.88,1.88-1.96,5.64-3.22C416.46,38.33,418.05,38.09,419.54,38.09z M400.01,59.69c-0.24,4.3,0.97,6.77,3.64,7.39
	c2.5,0.07,5.03-1.02,7.57-3.28c1.27-1.47,1.91-3.15,1.91-5.05c-0.79-3.85-3.13-5.77-7-5.77C402.92,53.08,400.88,55.31,400.01,59.69z
	"/>
<path class="st0" d="M20.44,206.06c-3.16-0.4-10.61,1.55-12.19-1.71c0.49-8.28-0.3-16.57-0.24-24.86
	c-0.57-20.12-1.2-42.11-1.59-62.28c0.5-5.19,18.22-1.8,23.15-2.93c14.02-0.07,29.73-2.34,43.02,2.68
	c20.34,5.17,20.58,37.53-0.37,42.05c17.88,1.71,21.59,27.93,8.04,37.29C62.98,208.13,40.13,203.51,20.44,206.06z M32.75,137.1
	c0.01,5.36-0.05,7.02,0.12,12.38c6.76-1.11,14.71,1.87,20.72-1.79C64.53,135.28,40.66,136.13,32.75,137.1z M33.23,166.94
	c0,4.71,0.12,9.38,0.37,14.02c6.82-0.62,16.12,0.4,22.55-2.25c4.51-1.84,4.63-8.08,0.06-10.24
	C49.3,164.37,40.75,166.49,33.23,166.94z"/>
<path class="st0" d="M168.51,203.14c-4.31-0.08-8.55-0.06-12.74,0.06c-4.18,0.12-8.39,0.14-12.61,0.06c-0.41,0-0.81-0.06-1.22-0.18
	c-0.41-0.12-0.65-0.39-0.73-0.79c-0.24-0.65-0.69-1.66-1.34-3.05c-0.65-1.38-1.44-2.9-2.38-4.57c-0.93-1.66-1.91-3.41-2.92-5.24
	c-1.02-1.83-2.01-3.57-2.99-5.24c-0.98-1.66-1.85-3.15-2.62-4.45c-0.77-1.3-1.32-2.27-1.64-2.93h-4.75
	c-0.16,3.41-0.29,6.82-0.37,10.24c-0.08,3.41-0.16,6.82-0.24,10.24c0,0.65-0.06,1.54-0.18,2.68c-0.12,1.14-0.47,1.87-1.04,2.19
	c-0.16,0.16-0.47,0.26-0.91,0.3c-0.45,0.04-0.91,0.08-1.4,0.12c-0.49,0.04-0.96,0.06-1.4,0.06c-0.45,0-0.79,0-1.04,0
	c-1.87,0-3.76-0.04-5.67-0.12c-1.91-0.08-3.8-0.16-5.67-0.24c-0.57,0-1.32,0-2.26,0c-0.93,0-1.89-0.04-2.86-0.12
	c-0.98-0.08-1.89-0.2-2.74-0.37c-0.85-0.16-1.44-0.45-1.77-0.85c-0.41-0.41-0.63-0.87-0.67-1.4c-0.04-0.53-0.06-1.04-0.06-1.52
	c-0.16-6.17-0.16-12.37,0-18.59c0.16-6.22,0.38-12.43,0.67-18.65c0.28-6.22,0.57-12.41,0.85-18.59c0.28-6.17,0.51-12.39,0.67-18.65
	c0-0.57,0-1.34,0-2.32c0-0.98,0.02-1.99,0.06-3.05c0.04-1.05,0.12-2.05,0.24-2.99c0.12-0.93,0.34-1.6,0.67-2.01
	c0.49-0.57,1.44-0.87,2.86-0.91c1.42-0.04,2.54-0.02,3.35,0.06c4.22,0.24,8.45,0.29,12.67,0.12c4.22-0.16,8.45-0.28,12.67-0.37
	c4.22-0.08,8.43-0.02,12.61,0.18c4.18,0.2,8.35,0.75,12.49,1.64c1.71,0.41,3.37,0.94,5,1.58c1.62,0.65,3.13,1.5,4.51,2.56
	c2.6,1.87,4.71,4.23,6.34,7.07c1.3,2.19,2.27,4.55,2.92,7.07c0.65,2.52,1.1,5.08,1.34,7.68c0.32,3.9,0.18,7.82-0.43,11.76
	c-0.61,3.94-1.85,7.62-3.72,11.03c-1.06,1.87-2.34,3.62-3.84,5.24c-1.5,1.63-3.15,3.01-4.94,4.14c-1.14,0.65-2.3,1.22-3.47,1.71
	c-1.18,0.49-2.38,0.93-3.59,1.34c0.4,0.65,1.16,1.87,2.25,3.66c1.1,1.79,2.25,3.68,3.47,5.67c1.22,1.99,2.33,3.9,3.35,5.73
	c1.02,1.83,1.73,3.03,2.13,3.59c0.16,0.24,0.45,0.73,0.85,1.46c0.41,0.73,0.83,1.5,1.28,2.32c0.45,0.81,0.85,1.58,1.22,2.32
	c0.37,0.73,0.63,1.22,0.79,1.46c0.16,0.41,0.14,0.81-0.06,1.22C169.34,202.93,169,203.14,168.51,203.14z M123.42,157.44
	c2.68-0.08,5.38,0.1,8.1,0.55c2.72,0.45,5.38,0.43,7.98-0.06c1.46-0.32,2.84-0.89,4.14-1.71c1.3-0.81,2.42-1.81,3.35-2.99
	c0.93-1.18,1.65-2.5,2.13-3.96c0.49-1.46,0.73-2.97,0.73-4.51c0-1.62-0.45-3.27-1.34-4.94c-0.9-1.66-2.11-2.86-3.66-3.59
	c-1.22-0.57-2.5-0.95-3.84-1.16c-1.34-0.2-2.7-0.38-4.08-0.55c-2.03-0.16-4.04-0.31-6.03-0.43c-1.99-0.12-4-0.14-6.03-0.06
	c0,0.73-0.08,2.21-0.24,4.45c-0.16,2.24-0.33,4.63-0.49,7.19c-0.16,2.56-0.31,4.98-0.43,7.25
	C123.6,155.2,123.5,156.71,123.42,157.44z"/>
<path class="st0" d="M252.12,216.75c-26.87-0.15-24.05,6.14-28.64-15.84c-7.8-0.38-15.6,0.01-23.4-0.37
	c-1.89,4.12-1.47,13.11-6.09,14.63c-7.77-0.44-16.04-0.7-23.95-1.83c-5.46-1.21,4.7-19.67,5.3-24.01
	c4.86-13.18,10.18-26.23,15.36-39.3c1.62-2.71,3.57-9.4,5.69-15.43c2.38-6.75,8.89-11.13,16.04-10.82c4.27,0.19,8.52,0.4,12.88,0.96
	c3.23-0.03,3.26,3.77,4.08,6.09c5.74,18.21,13.26,40.21,19.01,59.11C249.2,195.9,259.84,217.35,252.12,216.75z M205.56,182.02
	c4.73-0.34,9.29-0.19,14.02,0.12c-1.84-8.1-3.39-16.06-6.22-23.89C210.4,166.12,208,173.94,205.56,182.02z"/>
<path class="st0" d="M319.07,126.45c-0.22-6.82,5.3-12.37,12.12-12.32c0.18,0,0.37,0,0.55,0c0.26,0,0.52,0,0.78,0.02
	c5.7,0.35,8.7-0.02,15.2-0.09c18.67-0.61,34.84-2.32,47.16,14.38c14.61,20.17,11.88,52.59-8.16,68.25
	c-12.71,10.44-31.1,8-46.43,9.26c-2.14,0.01-4.7,0.28-7.33,0.5c-6,0.5-11.2-4.13-11.41-10.15L319.07,126.45z M345.29,149.48
	c0.12,6.48,0.22,12.91,0.4,19.38c0.2,7.19,6.61,12.57,13.73,11.61c4.91-0.66,9.21-2.49,10.91-7.96c3.8-10.11,2.75-22.93-4.39-31.38
	c-1.32-1.52-2.84-2.54-4.49-3.2C353.61,134.77,345.14,141.02,345.29,149.48z"/>
<path class="st0" d="M446.69,205.96c-9.73,1.49-9.7,1.31-19.45,0.37c-2.41-0.36-4.47-1.87-4.51-4.51
	c-0.76-6.4-1.23-12.51,0.36-18.89c0.29-3.25,3.7-2.23,5.73-1.95c7.98,1.3,6.64,0.54,14.6,0.75c3.06,0.08,9.24-2.14,5.06-5.85
	c-1.14-0.97-7.38-2.78-8.8-3.43c-9.39-3.85-19.55-7.75-26.02-15.96c-18.74-23.92,5.37-46.96,30.65-47.41
	c22.76-1.05,35.99,14.1,35.46,36.23c0.35,6.13-6.14,5.7-10.24,6.45c-2.97,0.16-6.43,0.35-10.26-0.38c-1.96-0.37-6.28-3.01-6.88-5.56
	c0.06-7.33-0.92-21.89-12.35-13.09c-13.06,10.05,2.31,17.65,10.24,20.78c6.24,3.14,13.1,5.1,18.71,9.32
	c8.45,6.84,10.11,19,4.81,28.21C468.5,200.54,456.92,204.36,446.69,205.96z"/>
<path class="st0" d="M272.02,117.05c2.44,0.14,3.66,1.05,3.66,2.73l-0.04,10.98c13.27-7.96,22.72-11.42,28.34-10.37
	c3.8,0.74,6,4.2,6.6,10.37c0,3.92-1.11,11.43-3.34,22.53c-4.23,20.35-6.35,31.84-6.35,34.47c0.29,1.22,0.8,1.72,1.54,1.51
	c1.7-0.81,2.87-1.22,3.52-1.22c2.58,0.07,3.48,1.92,2.69,5.56c-1.12,4.86-8.56,9.26-22.31,13.2c-4.26,0.45-6.52-1.33-6.78-5.34
	c-0.31-4.4,0.45-12.71,2.3-24.93c1.24-6.48,2.16-12.9,2.76-19.26c0.62-3.3-0.87-5-4.48-5.09c-3.01,0.81-4.52,2.91-4.52,6.28
	c-0.62,2.97-0.5,9.86,0.36,20.7c-0.12,7.58-1.84,11.74-5.17,12.48c-6.07,1.84-10.74,2.76-13.99,2.76c-1.51,0-2.52-4.27-3.05-12.81
	c-0.81-15.52-1.22-24.55-1.22-27.08c0-4.54,0.1-14.9,0.29-31.07c0.6-2.27,2.39-3.62,5.38-4.05
	C263.33,117.66,267.94,116.88,272.02,117.05z"/>
<g>
	<g>
		<path class="st1" d="M452.2,37.97c-6.64,3.15-13.28,6.31-19.92,9.46c-0.24-0.42-0.49-0.85-0.73-1.27
			c5.78-4.71,12.81-7.14,19.36-10.45C451.34,36.47,451.77,37.22,452.2,37.97z"/>
		<path class="st1" d="M458.05,60.3c-7.33,0.56-14.66,1.12-22,1.68C438.52,57.99,454.26,56.7,458.05,60.3z"/>
		<path class="st1" d="M455.24,84.02c-8.01-3-14.95-5.6-21.9-8.2c0.18-0.47,0.37-0.94,0.55-1.41
			C438.61,73.49,453.1,79.18,455.24,84.02z"/>
	</g>
</g>
</svg>
