<?xml version="1.0" encoding="utf-8"?>
<!-- Generator: Adobe Illustrator 26.0.0, SVG Export Plug-In . SVG Version: 6.00 Build 0)  -->
<svg version="1.1" id="Layer_1" xmlns="http://www.w3.org/2000/svg" xmlns:xlink="http://www.w3.org/1999/xlink" x="0px" y="0px"
	 viewBox="0 0 1014.13 268.09" style="enable-background:new 0 0 1014.13 268.09;" xml:space="preserve">
<style type="text/css">
	.st0{fill:#FFFFFF;}
	.st1{fill:#1EDF50;}
</style>
<g>
	<path class="st0" d="M84.81,219.45c-18.07,0-31.97-5.75-41.71-17.27c-9.74-11.51-14.61-29.84-14.61-54.99
		c0-25.14,4.87-43.48,14.61-54.99c9.74-11.51,23.64-17.27,41.71-17.27c13.28,0,23.91,3.05,31.88,9.16
		c7.97,6.11,13.72,14.21,17.27,24.31l-22.58,10.62c-1.59-6.91-4.47-12.17-8.63-15.81c-4.16-3.63-10.14-5.45-17.93-5.45
		c-18.24,0-27.36,11.07-27.36,33.21v32.41c0,22.14,9.12,33.21,27.36,33.21c7.97,0,14.21-1.9,18.73-5.71
		c4.52-3.81,8.01-9.43,10.49-16.87l20.72,11.42c-4.08,10.8-10.23,19.17-18.46,25.1C108.05,216.48,97.56,219.45,84.81,219.45z"/>
	<path class="st0" d="M143.52,216.26V78.12h27.36v27.36h3.19c1.95-8.85,5.62-15.63,11.02-20.32c5.4-4.69,12.26-7.04,20.59-7.04h6.91
		v27.89h-11.69c-9.74,0-17.18,1.86-22.31,5.58c-5.14,3.72-7.71,9.66-7.71,17.8v86.87H143.52z"/>
	<path class="st0" d="M269.16,219.45c-8.68,0-16.65-1.42-23.91-4.25c-7.26-2.83-13.46-7.21-18.6-13.15
		c-5.14-5.93-9.16-13.41-12.09-22.45c-2.92-9.03-4.38-19.83-4.38-32.41c0-12.57,1.33-23.42,3.98-32.54
		c2.66-9.12,6.51-16.6,11.56-22.45c5.05-5.84,11.07-10.18,18.06-13.02c6.99-2.83,14.92-4.25,23.77-4.25
		c17.53,0,31.22,5.76,41.04,17.27c9.83,11.51,14.74,29.84,14.74,54.99v6.91h-84.47v8.77c0,10.98,2.79,19.39,8.37,25.24
		s13.24,8.77,22.98,8.77c8.32,0,15.18-1.86,20.58-5.58c5.4-3.72,9.96-8.94,13.68-15.67l15.94,15.14
		c-4.96,8.68-11.65,15.63-20.06,20.85C291.96,216.83,281.56,219.45,269.16,219.45z M267.57,96.72c-9.21,0-16.29,2.79-21.25,8.37
		c-4.96,5.58-7.44,13.95-7.44,25.1v5.58h55.52v-5.58C294.4,107.87,285.45,96.72,267.57,96.72z"/>
	<path class="st0" d="M421.05,216.81h-8.71v-88.48c0-9.74-1.86-17.18-5.58-22.31c-3.72-5.14-9.56-7.7-17.53-7.7
		c-7.26,0-13.37,2.17-18.33,6.51c-4.96,4.34-7.44,10.41-7.44,18.2v93.24H336.1V78.12h27.36v22.85h3.19
		c5.49-17.35,16.82-26.03,34-26.03c12.4,0,22.01,4.21,28.82,12.62c6.82,8.41,10.23,20.77,10.23,37.06v3.72"/>
</g>
<path class="st1" d="M579.8,186.94c1.53,3.97-0.19,8.55-4.07,10.31c-0.02,0.01-0.04,0.02-0.06,0.03c-2.23,1.01-4.69,1.51-7.38,1.51
	c-2.94,0-5.19-1.01-6.75-3.03c-1.56-2.02-2.33-4.92-2.33-8.7c0-3.61,0.33-7.46,1.01-11.54c0.67-4.08,1.51-8.47,2.52-13.18l5.8-27.61
	c0.42-2.27,0.9-4.67,1.45-7.19s1.05-5.04,1.51-7.57c0.46-2.52,0.84-5.02,1.14-7.5c0.29-2.48,0.44-4.81,0.44-7
	c0-3.95-0.5-7.71-1.51-11.29c-1.01-3.57-2.67-6.73-4.98-9.46c-2.31-2.73-5.34-4.9-9.08-6.49c-3.74-1.6-8.34-2.4-13.81-2.4
	c-5.72,0-10.95,0.61-15.7,1.83c-4.75,1.22-9.14,3.07-13.18,5.55c-4.04,2.48-7.8,5.61-11.29,9.39c-3.49,3.79-6.87,8.24-10.15,13.37
	h-1.64l2.9-27.62h-57.38L435,92.11h4.67c2.44,0,4.52,0.13,6.24,0.38c1.72,0.25,3.13,0.76,4.23,1.51c1.09,0.76,1.89,1.85,2.4,3.28
	c0.5,1.43,0.76,3.32,0.76,5.68c0,0.34-0.04,0.88-0.13,1.64c-0.08,0.76-0.21,1.66-0.38,2.71c-0.17,1.05-0.36,2.17-0.57,3.34
	s-0.44,2.31-0.69,3.41l-21.69,102.77h38.71l13.11-59.9c0.76-3.36,1.85-7.15,3.28-11.35c1.43-4.2,3.13-8.49,5.11-12.86
	c1.98-4.37,4.18-8.64,6.62-12.8c2.44-4.16,5-7.86,7.69-11.1c2.69-3.24,5.49-5.84,8.39-7.82c2.9-1.97,5.82-2.96,8.76-2.96
	c2.27,0,4.1,0.46,5.49,1.39c1.39,0.92,2.48,2.1,3.28,3.53c0.8,1.43,1.34,3.03,1.64,4.79c0.29,1.77,0.44,3.45,0.44,5.04
	c0,2.1-0.19,4.48-0.57,7.13c-0.38,2.65-0.82,5.3-1.32,7.95c-0.5,2.65-1.01,5.19-1.51,7.63c-0.5,2.44-0.93,4.5-1.26,6.18l-4.16,20.43
	c-2.77,13.11-4.16,23.37-4.16,30.77c0,8.32,2.65,14.82,7.94,19.48c5.3,4.66,12.9,7,22.82,7c4.71,0,9.04-0.5,12.99-1.51
	c3.95-1.01,7.54-2.35,10.78-4.04c3.24-1.68,6.16-3.59,8.76-5.74c0.74-0.61,1.46-1.23,2.15-1.84c2.29-2.04,5.7-2.16,8.04-0.19
	l0.16,0.14c5.25,4.41,11.37,7.71,18.35,9.9c6.98,2.19,14.42,3.28,22.32,3.28c8.83,0,16.46-0.95,22.89-2.84
	c6.43-1.89,11.73-4.29,15.89-7.19c4.16-2.9,7.25-6.07,9.27-9.52c2.02-3.45,3.03-6.73,3.03-9.84c0-2.18-0.3-4.26-0.88-6.24
	c-0.59-1.97-1.39-3.59-2.4-4.86c-1.85,2.61-4.06,5.15-6.62,7.63c-2.56,2.48-5.46,4.71-8.7,6.68c-3.24,1.97-6.75,3.57-10.53,4.79
	c-3.78,1.22-7.78,1.83-11.98,1.83c-9.42,0-16.46-2.71-21.12-8.13c-4.67-5.42-7-13.13-7-23.14c0-1.43,0.02-3.01,0.06-4.73
	c0.04-1.72,0.19-3.42,0.44-5.11c1.6,0.17,3.24,0.26,4.92,0.26c1.68,0,3.24,0,4.67,0c11.1,0,21.35-1.43,30.77-4.29
	c9.41-2.86,17.53-6.7,24.34-11.54c6.81-4.83,12.15-10.44,16.01-16.83c3.87-6.39,5.8-13.07,5.8-20.05c0-9.58-3.4-17.04-10.21-22.38
	c-6.81-5.34-16.39-8.01-28.75-8.01c-9.5,0-18.26,1.32-26.29,3.97c-8.03,2.65-15.28,6.24-21.75,10.78
	c-6.47,4.54-12.17,9.82-17.09,15.83c-4.92,6.01-9.04,12.36-12.36,19.04c-3.32,6.68-5.27,10.87-6.95,17.85
	c-0.02,0.07-0.03,0.14-0.05,0.21c-2.72,11.25-3.07,22.95-0.96,34.34L579.8,186.94z M662,122.88c-2.31,4.37-5.51,8.13-9.58,11.29
	c-4.08,3.15-8.87,5.57-14.38,7.25c-5.51,1.68-11.45,2.52-17.84,2.52h-2.27c1.01-6.14,2.6-12.34,4.79-18.6
	c2.19-6.26,4.79-11.92,7.82-16.96c3.03-5.04,6.43-9.14,10.21-12.29c3.78-3.15,7.77-4.73,11.98-4.73c4.04,0,7.17,1.47,9.4,4.41
	c2.23,2.94,3.34,7.06,3.34,12.36C665.47,113.59,664.31,118.51,662,122.88z"/>
<path class="st1" d="M767.54,92.58c5.05-1.98,10.53-2.6,15.89-1.78c6.32,0.97,13.32,2.46,16.45,3.35c0.8,0.23,1.57,0.47,2.33,0.72
	c6.84,2.29,8.31,2.68,13.54,3.14l5.71-0.18c3.31,0,5.86,1.24,5.16,4.47l-14.15,65.22c-0.34,1.6-0.67,3.34-1.01,5.23
	c-0.34,1.89-0.63,3.8-0.88,5.74c-0.25,1.93-0.44,3.83-0.57,5.68c-0.13,1.85-0.19,3.53-0.19,5.04c0,5.13,0.86,9.58,2.58,13.36
	c1.72,3.79,4.1,6.92,7.13,9.4c3.03,2.48,6.58,4.33,10.66,5.55c4.08,1.22,8.47,1.83,13.18,1.83c4.96,0,9.56-0.48,13.81-1.45
	c4.24-0.97,8.22-2.27,11.92-3.91c3.7-1.64,7.12-3.55,10.28-5.74c3.15-2.19,6.16-4.5,9.02-6.93l-5.93-9.84
	c-2.86,1.85-5.93,3.45-9.21,4.79c-3.28,1.35-6.94,2.02-10.97,2.02c-3.87,0-6.98-1.09-9.33-3.28c-2.35-2.18-3.53-5.42-3.53-9.71
	c0-2.44,0.19-5.19,0.57-8.26c0.38-3.07,1.03-6.49,1.96-10.28l15.51-70.74h31.53l3.53-17.65h-31.15l6.68-31.78h-15.01
	c-4.04,6.64-8.34,12.27-12.92,16.9c-4.58,4.62-9.16,8.37-13.75,11.22c-4.58,2.86-9.06,4.92-13.43,6.18
	c-0.33,0.1-0.81,0.19-1.41,0.28c-6.05,0.9-12.19,0.02-17.93-2.1c-1.18-0.43-2.42-0.84-3.72-1.21c-5.17-1.47-11.33-2.21-18.47-2.21
	c-9.33,0-17.91,1.35-25.72,4.04c-7.82,2.69-14.88,6.31-21.19,10.84c-6.31,4.54-11.83,9.82-16.58,15.83
	c-4.75,6.01-8.72,12.36-11.92,19.04c-3.2,6.68-5.59,13.49-7.19,20.43c-1.6,6.93-2.4,13.6-2.4,19.99c0,9,1.51,16.81,4.54,23.45
	c3.03,6.64,7.13,12.19,12.29,16.65c5.17,4.46,11.22,7.78,18.16,9.96c6.94,2.19,14.31,3.28,22.13,3.28c8.83,0,16.44-0.9,22.82-2.71
	c6.39-1.81,11.67-4.12,15.83-6.94c4.16-2.81,7.23-5.97,9.21-9.46c1.97-3.49,2.96-6.91,2.96-10.28c0-2.6-0.38-4.9-1.13-6.87
	c-0.01-0.02-0.02-0.04-0.02-0.06c-1.12-2.96-5.17-3.17-6.57-0.33c-0.69,1.41-1.43,2.71-2.24,3.6c-2.27,2.52-4.88,4.79-7.82,6.81
	c-2.94,2.02-6.24,3.64-9.9,4.86c-3.66,1.22-7.76,1.83-12.3,1.83c-9.42,0-16.52-2.92-21.31-8.77c-4.79-5.84-7.19-14.02-7.19-24.52
	c0-4.46,0.38-9.4,1.13-14.82c0.76-5.42,1.87-10.93,3.34-16.52c1.47-5.59,3.24-11.01,5.3-16.27c2.06-5.25,4.43-9.92,7.12-14
	c0.59-0.89,1.19-1.75,1.81-2.57C757.87,97.79,762.45,94.58,767.54,92.58L767.54,92.58z"/>
<g>
	<path class="st0" d="M926.22,47.61V20.67h-9.73v-5.86h26.14v5.86h-9.66v26.94H926.22z"/>
	<path class="st0" d="M943.79,47.61v-32.8h9.98l6.53,24.96l6.43-24.96h10.02v32.8h-6.32V21.16l-6.66,26.45h-6.9l-6.75-26.45v26.45
		H943.79z"/>
</g>
</svg>
