<?xml version="1.0" encoding="utf-8"?>
<!-- Generator: Adobe Illustrator 26.0.0, SVG Export Plug-In . SVG Version: 6.00 Build 0)  -->
<svg version="1.1" id="Layer_1" xmlns="http://www.w3.org/2000/svg" xmlns:xlink="http://www.w3.org/1999/xlink" x="0px" y="0px"
	 viewBox="0 0 483.31 228.21" style="enable-background:new 0 0 483.31 228.21;" xml:space="preserve">
<style type="text/css">
	.st0{fill:#F05023;}
	.st1{fill:#010101;}
</style>
<g>
	<path class="st0" d="M73.16,96.16c-0.34,0-0.87,0.01-1.6,0.04c-0.73,0.03-4,0.04-4.79,0.04c-0.78,0-1.51-0.03-2.18-0.08
		c-0.67-0.06-1.18-0.17-1.51-0.34c-0.56,0-0.84-0.28-0.84-0.84c0.11-0.95,0.15-1.87,0.13-2.77c-0.03-0.89-0.04-1.82-0.04-2.77
		c-0.11-3.86-0.2-7.72-0.25-11.59c-0.06-3.86-0.17-7.72-0.34-11.59c-0.06-0.62-0.1-1.73-0.13-3.36c-0.03-1.62-0.07-3.5-0.13-5.63
		c-0.06-2.13-0.11-4.37-0.17-6.72c-0.06-2.35-0.11-4.58-0.17-6.67c-0.06-2.1-0.1-3.96-0.13-5.58c-0.03-1.62-0.04-2.74-0.04-3.36
		c-0.28-0.39-0.21-0.71,0.21-0.97c0.42-0.25,0.85-0.43,1.3-0.55c1.85-0.39,6.24-0.55,8.14-0.46c1.9,0.08,3.83,0.1,5.79,0.04
		c0.61,0,1.62-0.03,3.02-0.08c1.4-0.05,2.97-0.11,4.7-0.17c1.73-0.06,3.57-0.1,5.5-0.13c1.93-0.03,3.76-0.03,5.5,0
		c1.73,0.03,3.29,0.07,4.66,0.13c1.37,0.06,2.36,0.14,2.98,0.25c2.13,0.45,4.23,1.04,6.3,1.76c2.07,0.73,3.97,1.74,5.71,3.02
		c0.84,0.62,1.57,1.39,2.18,2.31c0.62,0.92,1.09,1.86,1.43,2.81c0.39,1.06,0.67,2.14,0.84,3.23c0.17,1.09,0.28,2.2,0.34,3.32
		c0.05,1.01,0.03,2.04-0.08,3.11c-0.11,1.06-0.36,2.07-0.76,3.02c-0.45,1.12-1.09,2.16-1.93,3.11c-0.84,0.95-1.74,1.76-2.69,2.43
		c-0.78,0.62-1.62,1.12-2.52,1.51c-0.9,0.39-1.82,0.76-2.77,1.09c2.41,0.45,4.51,1.32,6.3,2.6c0.84,0.62,1.6,1.34,2.27,2.18
		s1.18,1.74,1.51,2.69c0.45,1.12,0.71,2.31,0.8,3.57c0.08,1.26,0.13,2.51,0.13,3.74c-0.06,1.29-0.24,2.55-0.55,3.78
		c-0.31,1.23-0.77,2.41-1.39,3.53c-0.84,1.46-2.01,2.66-3.53,3.61c-3.47,2.35-7.22,3.95-11.25,4.79c-0.5,0.11-1.37,0.22-2.6,0.34
		c-1.23,0.11-2.62,0.21-4.16,0.29c-1.54,0.08-3.18,0.18-4.91,0.29c-1.74,0.11-3.39,0.21-4.95,0.29c-1.57,0.08-2.95,0.15-4.16,0.21
		c-1.2,0.05-2.09,0.08-2.64,0.08c-1.12,0.05-2.21,0.11-3.27,0.17C75.37,95.96,74.28,96.04,73.16,96.16z M81.64,47.21
		c0,1.85,0,3.69,0,5.54s0.03,3.69,0.08,5.54c1.85-0.22,3.69-0.36,5.54-0.42c1.85-0.06,3.67-0.28,5.46-0.67
		c1.29-0.17,2.38-0.59,3.27-1.26c0.45-0.39,0.85-0.82,1.22-1.3c0.36-0.47,0.6-1.02,0.71-1.64c0.17-0.84,0.08-1.57-0.25-2.18
		c-0.34-0.62-0.81-1.16-1.43-1.64c-0.62-0.47-1.33-0.84-2.14-1.09c-0.81-0.25-1.64-0.43-2.48-0.55c-1.62-0.17-3.27-0.29-4.95-0.38
		S83.32,47.1,81.64,47.21z M81.97,69.2c0,3.25,0.08,6.46,0.25,9.66c0.39,0,1.2-0.03,2.43-0.08c1.23-0.05,2.55-0.11,3.95-0.17
		c1.4-0.05,2.7-0.13,3.9-0.21c1.2-0.08,2.03-0.15,2.48-0.21c0.95-0.17,1.87-0.46,2.77-0.88c0.89-0.42,1.57-1.02,2.01-1.81
		c0.28-0.45,0.39-1.05,0.34-1.81c-0.06-0.76-0.2-1.33-0.42-1.72c-0.28-0.56-0.91-1.13-1.89-1.72c-0.98-0.59-1.75-0.97-2.31-1.13
		c-0.73-0.22-1.47-0.35-2.22-0.38c-0.76-0.03-1.53-0.07-2.31-0.13c-0.34,0-0.92,0.01-1.76,0.04c-0.84,0.03-1.75,0.07-2.73,0.13
		c-0.98,0.06-1.89,0.13-2.73,0.21C82.9,69.08,82.31,69.15,81.97,69.2z"/>
	<path class="st0" d="M158.86,93.64c-19.05-0.08-10.05,3.46-20.17-18.14h-2.33c-0.68,3.68,0.89,16.1-1.34,17.67
		c-3.89-0.09-8.61,0.72-12.14-1.05c-1.24-13.24,0.27-27.08,0.39-40.47c0.76-3.18-1.14-21.77,2.21-20.61
		c8.83,0.76,17.68-1.44,26.34,1.13c13.83,4.51,13.19,36.93,0.06,42.15C152.5,76.66,161.18,93.34,158.86,93.64z M136.79,62.16
		c6.76,1.19,12.8,0.76,12.95-8.73c0.27-7.52-7.33-7.48-12.23-7.39C137.33,50.51,136.99,57.69,136.79,62.16z"/>
	<path class="st0" d="M206.47,93.35c-5.71,0.22-11.36,0.25-16.96,0.08c-5.6-0.17-11.22-0.31-16.88-0.42c-0.39,0-0.91,0.01-1.55,0.04
		c-0.64,0.03-1.32,0.01-2.01-0.04c-0.7-0.06-1.34-0.14-1.93-0.25c-0.59-0.11-1.02-0.31-1.3-0.59c-0.22-0.22-0.36-0.52-0.42-0.88
		c-0.06-0.36-0.08-0.71-0.08-1.05c-0.39-8.9-0.41-17.8-0.04-26.7c0.36-8.9,0.55-17.8,0.55-26.7c0-0.28-0.01-0.67-0.04-1.18
		c-0.03-0.5-0.03-1.03,0-1.6c0.03-0.56,0.08-1.06,0.17-1.51c0.08-0.45,0.24-0.78,0.46-1.01c0.22-0.17,0.59-0.29,1.09-0.38
		c0.5-0.08,1.04-0.14,1.6-0.17c0.56-0.03,1.1-0.03,1.64,0c0.53,0.03,0.97,0.04,1.3,0.04c6.1,0.11,12.15,0.06,18.14-0.17
		c5.99-0.22,12.03-0.25,18.14-0.08c0.28,0,0.61,0.03,1.01,0.08c0.39,0.06,0.64,0.22,0.76,0.5c0.06,0.11,0.1,0.39,0.13,0.84
		c0.03,0.45,0.04,0.73,0.04,0.84c0.05,1.46,0.04,2.9-0.04,4.32c-0.08,1.43-0.18,2.87-0.29,4.32c0,0.39,0.01,0.92,0.04,1.6
		c0.03,0.67,0.03,1.34,0,2.01c-0.03,0.67-0.1,1.3-0.21,1.89c-0.11,0.59-0.34,0.99-0.67,1.22c-0.28,0.28-0.64,0.39-1.09,0.34
		c-0.45-0.05-0.87-0.11-1.26-0.17c-3.58-0.28-7.14-0.35-10.66-0.21c-3.53,0.14-7.08,0.21-10.66,0.21c-0.06,0.95-0.1,1.93-0.13,2.94
		c-0.03,1.01-0.07,1.99-0.13,2.94c2.01-0.06,4.02,0,6,0.17c1.99,0.17,3.96,0.2,5.92,0.08c0.39,0,1.01-0.04,1.85-0.13
		c0.84-0.08,1.69-0.14,2.56-0.17c0.87-0.03,1.71-0.01,2.52,0.04c0.81,0.06,1.39,0.17,1.72,0.34c0.34,0.17,0.56,0.45,0.67,0.84
		c0.11,0.39,0.17,0.84,0.17,1.34c0,0.5-0.03,1.01-0.08,1.51c-0.06,0.5-0.08,0.92-0.08,1.26c-0.06,1.12-0.1,2.27-0.13,3.44
		c-0.03,1.18-0.07,2.32-0.13,3.44c0,0.67-0.1,1.4-0.29,2.18c-0.2,0.78-0.63,1.23-1.3,1.34c-0.45,0.06-1.32,0.06-2.6,0
		c-1.29-0.05-2.64-0.11-4.07-0.17c-1.43-0.06-2.79-0.11-4.07-0.17c-1.29-0.05-2.16-0.08-2.6-0.08c-1.12-0.05-2.21-0.04-3.27,0.04
		c-1.06,0.08-2.16,0.15-3.27,0.21v5.88c3.3-0.06,6.58-0.08,9.82-0.08c3.25,0,6.52,0,9.82,0c0.67,0,1.43,0,2.27,0
		s1.31,0.34,1.43,1.01c0.34,1.96,0.38,3.95,0.13,5.96c-0.25,2.01-0.38,4-0.38,5.96c0,0.5,0.03,1.02,0.08,1.55
		c0.05,0.53,0.05,1.02,0,1.47c-0.06,0.45-0.18,0.83-0.38,1.13C207.24,93.2,206.92,93.35,206.47,93.35z"/>
	<path class="st0" d="M265.68,99.09c0.03,4.66-15.06-3.01-17.76-3.32c-2.41-1.62-0.02-9.05-0.12-11.84
		c-5-1.98-10.17-3.47-15.17-5.46c-1.77,1.91-5.88,17.06-8.65,16.66c-4.18-0.61-5.36,0.27-9.54-1.25c-1.53-0.56-3.96-1.39-4.67-5.79
		c-0.14-0.84-0.97-6.23,0.72-9.86c2.03-4.36,3.47-6.37,6.53-10.12c3.06-3.75,5.43-7.59,8.04-11.68c5.63-8.84,5.28-10.8,11.38-18.31
		c1.08-1.16,4.22-5.78,6.14-5.79c9.49-0.06,17.5-0.55,22.74,2.04c1.26,0.58,1.77,0.84,2.5,1.88c2.34,5.21,5.93,5.18,5.47,30.35
		C272.14,87.84,265.68,99.09,265.68,99.09z M240.34,67.62c3.15,0.83,6.1,1.95,9.11,3.2c0.61-5.69,1.37-11.23,1.27-16.96
		C247.03,58.33,243.73,62.89,240.34,67.62z"/>
	<g>
		<g>
			<path class="st0" d="M18.84,208.99c-3.19-0.4-10.7,1.56-12.29-1.72c0.5-8.35-0.3-16.7-0.24-25.06
				c-0.57-20.28-1.21-42.45-1.6-62.78c0.5-5.23,18.36-1.81,23.34-2.95c14.13-0.07,29.97-2.36,43.37,2.7
				c20.5,5.22,20.75,37.84-0.37,42.39c18.02,1.73,21.77,28.16,8.11,37.59C61.73,211.08,38.7,206.42,18.84,208.99z M31.25,139.47
				c0.01,5.41-0.05,7.08,0.12,12.48c6.82-1.12,14.83,1.88,20.89-1.8C63.28,137.63,39.23,138.49,31.25,139.47z M31.74,169.56
				c0,4.75,0.12,9.46,0.37,14.13c6.87-0.63,16.25,0.4,22.73-2.27c4.54-1.86,4.67-8.15,0.06-10.32
				C47.94,166.96,39.32,169.1,31.74,169.56z"/>
			<path class="st0" d="M168.11,206.05c-4.34-0.08-8.62-0.06-12.84,0.06c-4.22,0.12-8.46,0.14-12.72,0.06
				c-0.41,0-0.82-0.06-1.23-0.18c-0.41-0.12-0.66-0.39-0.74-0.8c-0.25-0.66-0.7-1.68-1.35-3.07c-0.66-1.39-1.46-2.93-2.4-4.61
				c-0.94-1.68-1.92-3.44-2.95-5.28c-1.03-1.84-2.03-3.6-3.01-5.28c-0.98-1.68-1.86-3.17-2.64-4.48c-0.78-1.31-1.33-2.29-1.66-2.95
				h-4.79c-0.17,3.44-0.29,6.88-0.37,10.32c-0.08,3.44-0.17,6.88-0.25,10.32c0,0.66-0.06,1.56-0.18,2.7
				c-0.12,1.15-0.47,1.89-1.04,2.21c-0.17,0.16-0.47,0.26-0.92,0.31c-0.45,0.04-0.92,0.08-1.41,0.12c-0.49,0.04-0.96,0.06-1.41,0.06
				c-0.45,0-0.8,0-1.04,0c-1.89,0-3.79-0.04-5.71-0.12c-1.93-0.08-3.83-0.17-5.71-0.25c-0.57,0-1.33,0-2.27,0
				c-0.94,0-1.9-0.04-2.89-0.12c-0.98-0.08-1.9-0.2-2.76-0.37c-0.86-0.16-1.46-0.45-1.78-0.86c-0.41-0.41-0.64-0.88-0.68-1.41
				c-0.04-0.53-0.06-1.04-0.06-1.54c-0.17-6.22-0.17-12.47,0-18.74c0.16-6.27,0.39-12.53,0.68-18.8c0.29-6.27,0.57-12.51,0.86-18.74
				c0.29-6.22,0.51-12.49,0.68-18.8c0-0.57,0-1.35,0-2.33c0-0.98,0.02-2.01,0.06-3.07c0.04-1.06,0.12-2.07,0.25-3.01
				c0.12-0.94,0.35-1.62,0.68-2.03c0.49-0.57,1.45-0.88,2.89-0.92c1.43-0.04,2.56-0.02,3.38,0.06c4.26,0.25,8.52,0.29,12.78,0.12
				c4.26-0.16,8.52-0.29,12.78-0.37c4.26-0.08,8.5-0.02,12.72,0.18c4.22,0.21,8.42,0.76,12.59,1.66c1.72,0.41,3.4,0.94,5.04,1.6
				c1.64,0.66,3.15,1.52,4.55,2.58c2.62,1.88,4.75,4.26,6.39,7.13c1.31,2.21,2.29,4.59,2.95,7.12c0.65,2.54,1.11,5.12,1.35,7.74
				c0.33,3.93,0.18,7.88-0.43,11.86c-0.61,3.97-1.86,7.68-3.75,11.12c-1.07,1.88-2.36,3.65-3.87,5.28
				c-1.52,1.64-3.17,3.03-4.98,4.18c-1.15,0.66-2.31,1.23-3.5,1.72c-1.19,0.49-2.4,0.94-3.62,1.35c0.41,0.66,1.17,1.88,2.27,3.69
				c1.11,1.8,2.27,3.71,3.5,5.71c1.23,2.01,2.35,3.93,3.38,5.77c1.02,1.84,1.74,3.05,2.15,3.62c0.16,0.25,0.45,0.74,0.86,1.47
				c0.41,0.74,0.84,1.52,1.29,2.33c0.45,0.82,0.86,1.6,1.23,2.33c0.37,0.74,0.63,1.23,0.8,1.47c0.16,0.41,0.14,0.82-0.06,1.23
				C168.95,205.84,168.6,206.05,168.11,206.05z M122.65,159.97c2.7-0.08,5.42,0.1,8.17,0.55c2.74,0.45,5.42,0.43,8.05-0.06
				c1.47-0.33,2.87-0.9,4.18-1.72c1.31-0.82,2.44-1.82,3.38-3.01c0.94-1.19,1.66-2.52,2.15-3.99s0.74-2.99,0.74-4.55
				c0-1.64-0.45-3.3-1.35-4.98c-0.9-1.68-2.13-2.89-3.69-3.62c-1.23-0.57-2.52-0.96-3.87-1.17c-1.35-0.2-2.72-0.39-4.12-0.55
				c-2.05-0.16-4.08-0.31-6.08-0.43c-2.01-0.12-4.04-0.14-6.08-0.06c0,0.74-0.08,2.23-0.25,4.48c-0.17,2.25-0.33,4.67-0.49,7.25
				c-0.17,2.58-0.31,5.02-0.43,7.31C122.84,157.72,122.73,159.24,122.65,159.97z"/>
			<path class="st0" d="M252.39,219.77c-27.09-0.15-24.24,6.19-28.87-15.97c-7.86-0.38-15.72,0.01-23.59-0.37
				c-1.9,4.15-1.48,13.22-6.14,14.74c-7.84-0.44-16.17-0.7-24.14-1.84c-5.5-1.22,4.74-19.83,5.34-24.2
				c4.9-13.29,10.26-26.44,15.48-39.62c1.63-2.73,3.6-9.48,5.74-15.55c2.4-6.8,8.97-11.22,16.17-10.91
				c4.3,0.19,8.59,0.41,12.98,0.96c3.25-0.03,3.28,3.8,4.12,6.14c5.78,18.36,13.36,40.53,19.17,59.59
				C249.45,198.75,260.17,220.37,252.39,219.77z M205.46,184.75c4.76-0.34,9.37-0.19,14.13,0.12c-1.85-8.17-3.42-16.19-6.27-24.08
				C210.33,168.72,207.92,176.61,205.46,184.75z"/>
			<path class="st0" d="M319.89,128.74c-0.23-6.87,5.35-12.47,12.22-12.42c0.19,0,0.37,0,0.55,0c0.26,0,0.53,0,0.79,0.02
				c5.74,0.35,8.77-0.02,15.32-0.09c18.82-0.61,35.12-2.34,47.55,14.5c14.72,20.34,11.97,53.02-8.23,68.8
				c-12.81,10.52-31.35,8.07-46.81,9.34c-2.15,0.01-4.74,0.29-7.39,0.51c-6.05,0.5-11.29-4.16-11.5-10.23L319.89,128.74z
				 M346.32,151.95c0.12,6.53,0.23,13.01,0.41,19.54c0.2,7.24,6.66,12.67,13.84,11.7c4.95-0.67,9.29-2.51,11-8.02
				c3.83-10.19,2.77-23.11-4.42-31.64c-1.33-1.53-2.86-2.56-4.53-3.23C354.71,137.13,346.17,143.43,346.32,151.95z"/>
			<path class="st0" d="M448.54,208.89c-9.8,1.5-9.78,1.32-19.61,0.37c-2.43-0.36-4.5-1.89-4.54-4.55
				c-0.76-6.45-1.24-12.62,0.37-19.04c0.29-3.28,3.73-2.25,5.77-1.96c8.05,1.31,6.69,0.54,14.72,0.75c3.08,0.08,9.32-2.16,5.1-5.9
				c-1.15-0.98-7.44-2.8-8.87-3.46c-9.46-3.88-19.71-7.81-26.23-16.09c-18.89-24.12,5.41-47.34,30.9-47.79
				c22.94-1.06,36.28,14.22,35.75,36.52c0.35,6.18-6.19,5.74-10.32,6.5c-2.99,0.16-6.48,0.35-10.34-0.38
				c-1.97-0.38-6.33-3.03-6.94-5.61c0.06-7.39-0.93-22.07-12.45-13.2c-13.16,10.13,2.32,17.79,10.32,20.95
				c6.29,3.17,13.21,5.15,18.86,9.4c8.52,6.89,10.2,19.15,4.85,28.44C470.52,203.43,458.85,207.28,448.54,208.89z"/>
			<path class="st0" d="M272.46,119.26c2.46,0.14,3.69,1.06,3.69,2.75l-0.04,11.07c13.38-8.03,22.9-11.51,28.57-10.45
				c3.83,0.75,6.05,4.23,6.65,10.45c0,3.95-1.12,11.52-3.36,22.71c-4.27,20.52-6.4,32.1-6.4,34.75c0.29,1.23,0.81,1.74,1.56,1.52
				c1.71-0.82,2.89-1.23,3.54-1.23c2.6,0.07,3.51,1.94,2.71,5.61c-1.13,4.89-8.63,9.33-22.49,13.31c-4.29,0.46-6.57-1.34-6.83-5.39
				c-0.31-4.44,0.46-12.81,2.31-25.13c1.25-6.53,2.18-13.01,2.78-19.42c0.63-3.33-0.88-5.04-4.52-5.14
				c-3.04,0.82-4.56,2.93-4.56,6.33c-0.63,2.99-0.51,9.94,0.36,20.87c-0.12,7.64-1.86,11.84-5.21,12.58
				c-6.12,1.86-10.82,2.78-14.1,2.78c-1.52,0-2.54-4.3-3.07-12.91c-0.82-15.65-1.23-24.75-1.23-27.3c0-4.58,0.1-15.02,0.29-31.32
				c0.6-2.29,2.41-3.65,5.42-4.09C263.7,119.87,268.34,119.09,272.46,119.26z"/>
		</g>
	</g>
</g>
<g>
	<path class="st1" d="M315.22,88.86c-0.84,1.17,0.57,2.62,1.76,1.82c3.34-2.27,6.69-4.7,7.22-5.06c1.45-0.98,2.5-1.36,1.93,3.52
		c-0.8,5.43-3.34,8.53-6.64,11.81c-4.08,3.78-8.57,5.56-13.49,5.34c-2.27-0.21-4.11-1.48-5.52-3.8c-0.47-1.2-0.54-2.46-0.21-3.77
		c0-2.36,1.49-6.18,4.48-11.45c3.07-6.14,4.5-10.16,4.3-12.05c-0.87-1.23-2.02-1.85-3.46-1.85c-4.36,0.59-6.53,1.21-6.53,1.85
		c-0.83,10.41-5.86,21.91-7.07,26.49c-2.07,5.99-4.31,8.98-6.74,8.98c-3.23,0-6.98-1.15-11.25-3.46c-1.49-0.83-2.59-2.4-3.28-4.71
		l-0.21-1.02c2.97-11.02,9-23.26,8.5-40.19c-0.32-10.86-1.36-21.63-4.09-32.31c-0.82-2.36-1.36-4.68-1.64-6.95
		c0-3.73,3.48-7.34,10.44-10.83c2.24-1.3,4.21-2.06,5.91-2.27c5.1,0,8.17,3.89,9.22,11.66c0.68,17.7,1.08,28.26,1.22,31.68
		c0.03,0.28,0.17,0.42,0.42,0.42c0.31-0.16,0.93-0.73,1.85-1.72c2.13-2.3,4.02-4.82,5.67-7.49c2.1-3.4,3.69-5.78,4.74-7.14
		c0.76-0.82,1.58-1.22,2.45-1.22c1.56,0,3.33,1.26,5.28,3.77c1.75,2.24,3.02,4.85,3.61,7.63c0.14,0.65,0.24,1.28,0.3,1.87
		c0,3.49-1.42,5.8-4.27,6.95c-5.07,1.68-9.73,4.2-13.98,7.55c2.15-1.02,4.76-1.7,7.84-2.03h1.64c4.27,0,7.19,1.7,8.77,5.1
		c0.52,1.37,0.73,2.67,0.62,3.9c-0.54,3.84-2.92,8.95-7.16,15.33L315.22,88.86z"/>
	<path class="st1" d="M330.99,55.22c-1.1-1.22-1.8-2.64-2.09-4.29v-1.49c1.6-9.39,3.68-14.08,6.22-14.08h0.45
		c1.57,0,3.05,0.5,4.44,1.49c1.7,1.55,2.99,3.73,3.85,6.52c0.86,2.13,1.46,4.69,1.79,7.69c0,4.36-2.02,6.54-6.07,6.54
		C335.68,57.61,332.82,56.81,330.99,55.22z M331.96,92.41c-1.17-1.04-1.86-5.36-2.06-12.96v-1.03c0.88-10.03,2.39-15.63,4.54-16.78
		l0.57-0.09c3.39,0.57,6.03,1.54,7.92,2.9c1.62,0.98,2.53,5.86,2.72,14.65c0.03,2.44-0.03,5.04-0.18,7.79
		c0,1.81-0.45,4.69-1.34,8.64c-0.28,2.08-1.17,3.11-2.68,3.11C336.85,97.23,333.68,95.16,331.96,92.41z"/>
	<path class="st1" d="M361.48,45.08c1.49,0.09,2.24,0.64,2.24,1.67l-0.02,6.71c8.12-4.87,13.89-6.98,17.33-6.34
		c2.32,0.45,3.67,2.57,4.04,6.34c0,2.4-0.68,6.99-2.04,13.78c-2.59,12.44-3.88,19.47-3.88,21.08c0.18,0.75,0.49,1.05,0.94,0.92
		c1.04-0.5,1.75-0.75,2.15-0.75c1.58,0.04,2.13,1.18,1.65,3.4c-0.69,2.97-5.24,5.66-13.64,8.07c-2.6,0.28-3.99-0.81-4.15-3.27
		c-0.19-2.69,0.28-7.77,1.4-15.25c0.76-3.96,1.32-7.89,1.69-11.78c0.38-2.02-0.53-3.06-2.74-3.12c-1.84,0.5-2.54,1.79-2.76,3.84
		c-0.3,2.73-0.36,3.62-0.78,5.66c-0.93,4.54-1.13,7.18-3.16,7.63c-5.23,1.44-5.73,4.25-7.72,4.25c-0.92,0-1.72-4.35-2.04-9.57
		c-0.5-9.49-0.4-8.82-0.4-10.37c0-2.78,0.06-9.11,0.18-19c0.37-1.39,1.46-2.22,3.29-2.48C356.17,45.45,358.98,44.98,361.48,45.08z"
		/>
	<path class="st1" d="M421.17,39.66c1.23-0.09,2.23,3.58,3.01,11.01c1.23,12.33,1.65,22,1.25,29.02c-0.29,4.65-1.18,8.61-2.68,11.87
		c-4.59,9.74-11.78,14.18-21.56,13.34c-4.47-0.8-6.64-1.31-9.4-3.12c-4.19-2.74-5.91-5.89-6.13-7.79c0.09-1.7,3.06-5.48,6.3-8.6
		c4.34-4.2,6.57-5.29,8.51-4.32c2.66,1.32,3.32,1.68,4.6,4.89c1.15,1.9,2.63,1.74,5.14,1.89c2.98,0.77,4.37-2.82,4.17-10.77
		c-0.04-2.02-0.17-3.36-0.37-4.01c-4.28,4.07-9.4,5.31-15.33,3.73c-3.35-1.61-5.5-3.5-6.45-5.68c-0.95-2.56-1.43-5.27-1.43-8.14
		c0.09-8.7,2.92-14.31,8.51-16.82c4.65-0.85,8.76,0.12,12.33,2.9c-0.03-1.43-0.34-3.24-0.94-5.42c0-0.89,1.89-1.97,5.68-3.25
		C418.06,39.9,419.66,39.66,421.17,39.66z M401.48,61.44c-0.24,4.34,0.98,6.82,3.67,7.45c2.52,0.07,5.07-1.03,7.64-3.31
		c1.28-1.48,1.93-3.18,1.93-5.09c-0.8-3.88-3.15-5.82-7.05-5.82C404.42,54.77,402.36,57.03,401.48,61.44z"/>
	<g>
		<g>
			<path class="st1" d="M454.09,39.54c-6.69,3.18-13.39,6.36-20.08,9.54c-0.25-0.43-0.49-0.85-0.74-1.28
				c5.82-4.75,12.92-7.19,19.52-10.53C453.23,38.03,453.66,38.78,454.09,39.54z"/>
			<path class="st1" d="M459.99,62.05c-7.39,0.56-14.78,1.13-22.18,1.69C440.3,59.73,456.17,58.42,459.99,62.05z"/>
			<path class="st1" d="M457.16,85.97c-8.07-3.02-15.07-5.64-22.07-8.26c0.18-0.47,0.37-0.95,0.55-1.42
				C440.4,75.35,455.01,81.09,457.16,85.97z"/>
		</g>
	</g>
</g>
</svg>
