<svg id="Layer_1" data-name="Layer 1" xmlns="http://www.w3.org/2000/svg" viewBox="0 0 948.25 204.63"><defs><style>.cls-1{fill:#1edf50;}</style></defs><path d="M70.32,215.27q-27.09,0-41.7-17.27T14,143q0-37.73,14.61-55t41.7-17.27q19.94,0,31.88,9.17a51.23,51.23,0,0,1,17.27,24.3L96.89,114.86q-2.39-10.36-8.64-15.81T70.32,93.61Q43,93.61,43,126.81v32.41q0,33.21,27.36,33.21,12,0,18.73-5.71t10.5-16.87l20.71,11.42q-6.11,16.2-18.46,25.1T70.32,215.27Z" transform="translate(-14.01 -10.64)"/><path d="M129,212.08V74h27.36v27.36h3.19Q162.51,88,170.6,81t20.59-7h6.91v27.89H186.41q-14.61,0-22.32,5.58t-7.7,17.8v86.86Z" transform="translate(-14.01 -10.64)"/><path d="M254.68,215.27A65.3,65.3,0,0,1,230.77,211a46.6,46.6,0,0,1-18.6-13.15q-7.69-8.9-12.08-22.45T195.7,143q0-18.86,4-32.54T211.25,88a46.83,46.83,0,0,1,18.06-13,62.91,62.91,0,0,1,23.77-4.25q26.29,0,41,17.27t14.75,55v6.9H224.39v8.77q0,16.47,8.37,25.24t23,8.76q12.48,0,20.59-5.58A45,45,0,0,0,290,171.44L306,186.58a58,58,0,0,1-20.06,20.85Q273.28,215.27,254.68,215.27Zm-1.6-122.73q-13.82,0-21.25,8.37T224.39,126v5.57h55.52V126Q279.91,92.54,253.08,92.54Z" transform="translate(-14.01 -10.64)"/><path d="M406.57,212.63h-8.71V124.16q0-14.61-5.58-22.32t-17.53-7.7q-10.9,0-18.33,6.51T349,118.84v93.24H321.62V74H349V96.8h3.19q8.22-26,34-26,18.58,0,28.82,12.62t10.23,37.06v3.71" transform="translate(-14.01 -10.64)"/><path class="cls-1" d="M565.31,182.77a8.1,8.1,0,0,1-4.07,10.31l-.06,0a17.63,17.63,0,0,1-7.37,1.51,8,8,0,0,1-6.75-3c-1.56-2-2.33-4.92-2.33-8.7a70.32,70.32,0,0,1,1-11.54q1-6.12,2.52-13.18l5.8-27.61q.63-3.41,1.45-7.19c.54-2.52,1-5,1.51-7.57s.84-5,1.14-7.5a60.44,60.44,0,0,0,.44-7A41.25,41.25,0,0,0,557.08,90a24.79,24.79,0,0,0-5-9.46A23.91,23.91,0,0,0,543,74.07a35.11,35.11,0,0,0-13.8-2.4,63,63,0,0,0-15.7,1.83,47.59,47.59,0,0,0-13.18,5.55,53.43,53.43,0,0,0-11.29,9.39,96.1,96.1,0,0,0-10.15,13.37h-1.64l2.9-27.62H422.79l-2.27,13.74h4.66a44.16,44.16,0,0,1,6.24.38,9.88,9.88,0,0,1,4.23,1.52A6.41,6.41,0,0,1,438,93.11a17.29,17.29,0,0,1,.76,5.67c0,.34,0,.88-.12,1.64s-.21,1.66-.38,2.71-.36,2.17-.57,3.34-.44,2.32-.69,3.41L415.35,212.65h38.71l13.11-59.9a113.74,113.74,0,0,1,3.28-11.35q2.15-6.3,5.11-12.86a134.78,134.78,0,0,1,6.62-12.8,83.37,83.37,0,0,1,7.69-11.1,41.22,41.22,0,0,1,8.39-7.81,15.43,15.43,0,0,1,8.76-3,9.79,9.79,0,0,1,5.49,1.39,10.26,10.26,0,0,1,3.28,3.53,14.82,14.82,0,0,1,1.63,4.79,30.23,30.23,0,0,1,.45,5.05,50.66,50.66,0,0,1-.57,7.12q-.57,4-1.32,8c-.51,2.64-1,5.19-1.52,7.62s-.92,4.5-1.26,6.18L509,157.92q-4.16,19.68-4.16,30.77,0,12.48,7.94,19.48t22.83,7a52.5,52.5,0,0,0,13-1.51,49.9,49.9,0,0,0,19.54-9.77c.74-.61,1.46-1.23,2.15-1.84a6.12,6.12,0,0,1,8-.19l.17.13a52.44,52.44,0,0,0,18.34,9.9,74.15,74.15,0,0,0,22.32,3.28,81.33,81.33,0,0,0,22.89-2.84A54.71,54.71,0,0,0,658,205.15a31,31,0,0,0,9.27-9.52,19.56,19.56,0,0,0,3-9.84,21.74,21.74,0,0,0-.89-6.24,14.24,14.24,0,0,0-2.39-4.86,54.81,54.81,0,0,1-6.62,7.63,50.41,50.41,0,0,1-8.7,6.69,49.38,49.38,0,0,1-10.53,4.79,38.84,38.84,0,0,1-12,1.83q-14.13,0-21.12-8.14t-7-23.13q0-2.15.06-4.74a41.11,41.11,0,0,1,.44-5.1,46.56,46.56,0,0,0,4.92.25h4.66a105.41,105.41,0,0,0,30.77-4.29,83.34,83.34,0,0,0,24.34-11.54,56.7,56.7,0,0,0,16-16.83,38.22,38.22,0,0,0,5.8-20q0-14.39-10.22-22.38t-28.75-8a82.3,82.3,0,0,0-48,14.75A85,85,0,0,0,584,102.25a100.94,100.94,0,0,0-12.36,19c-3.32,6.68-5.27,10.87-7,17.84l0,.21a82.33,82.33,0,0,0-1,34.34Zm82.2-64.07A34.46,34.46,0,0,1,637.93,130a44.52,44.52,0,0,1-14.38,7.25,60.81,60.81,0,0,1-17.84,2.52h-2.27a112.16,112.16,0,0,1,4.79-18.6,92.4,92.4,0,0,1,7.82-17,47.74,47.74,0,0,1,10.22-12.29,18.45,18.45,0,0,1,12-4.73,11.11,11.11,0,0,1,9.39,4.41c2.23,3,3.34,7.06,3.34,12.36A30.94,30.94,0,0,1,647.51,118.7Z" transform="translate(-14.01 -10.64)"/><path class="cls-1" d="M753.05,88.41a30.78,30.78,0,0,1,15.89-1.78A162.25,162.25,0,0,1,785.39,90c.8.23,1.57.47,2.33.72,6.84,2.29,8.3,2.68,13.54,3.14l5.7-.18c3.31,0,5.87,1.24,5.17,4.47L798,163.35c-.34,1.59-.67,3.34-1,5.23s-.63,3.8-.88,5.74-.44,3.82-.57,5.67-.19,3.53-.19,5a31.88,31.88,0,0,0,2.59,13.36,25.58,25.58,0,0,0,7.12,9.39,30,30,0,0,0,10.66,5.55,45.74,45.74,0,0,0,13.18,1.83,61.84,61.84,0,0,0,13.8-1.45,65,65,0,0,0,11.92-3.91,63,63,0,0,0,10.28-5.73,113.19,113.19,0,0,0,9-6.94L868,187.3a55.74,55.74,0,0,1-9.21,4.8,28.74,28.74,0,0,1-11,2,13.14,13.14,0,0,1-9.33-3.29q-3.53-3.27-3.53-9.7a67.89,67.89,0,0,1,.57-8.26,89.22,89.22,0,0,1,2-10.28L853,91.85h31.53L888,74.19H856.87l6.68-31.78h-15a91.25,91.25,0,0,1-12.93,16.9,77.11,77.11,0,0,1-13.74,11.23,54,54,0,0,1-13.43,6.17A11.21,11.21,0,0,1,807,77a36.36,36.36,0,0,1-17.93-2.1q-1.77-.65-3.72-1.2a68.07,68.07,0,0,0-18.47-2.21,78.62,78.62,0,0,0-25.73,4A81.11,81.11,0,0,0,720,86.36a82.2,82.2,0,0,0-16.58,15.82,100.13,100.13,0,0,0-11.92,19,98.29,98.29,0,0,0-7.19,20.43,88.78,88.78,0,0,0-2.4,20q0,13.5,4.54,23.46a47.77,47.77,0,0,0,12.3,16.64,50.69,50.69,0,0,0,18.16,10A73,73,0,0,0,739.05,215a84.38,84.38,0,0,0,22.82-2.71,55,55,0,0,0,15.83-6.93,28.78,28.78,0,0,0,9.2-9.46,20.73,20.73,0,0,0,3-10.28,19.06,19.06,0,0,0-1.14-6.87l0-.06a3.57,3.57,0,0,0-6.57-.33,15.91,15.91,0,0,1-2.24,3.6,42.82,42.82,0,0,1-7.81,6.81,39.67,39.67,0,0,1-9.9,4.86,38.76,38.76,0,0,1-12.3,1.83q-14.11,0-21.31-8.77t-7.19-24.52a107.49,107.49,0,0,1,1.14-14.82,143.08,143.08,0,0,1,3.34-16.52,147.29,147.29,0,0,1,5.3-16.27,75.31,75.31,0,0,1,7.12-14c.59-.9,1.19-1.75,1.81-2.57a29.66,29.66,0,0,1,12.95-9.57Z" transform="translate(-14.01 -10.64)"/><path d="M911.74,43.44V16.5H902V10.64h26.14V16.5h-9.67V43.44Z" transform="translate(-14.01 -10.64)"/><path d="M929.31,43.44V10.64h10l6.53,25,6.43-25h10v32.8h-6.32V17l-6.66,26.45h-6.9L935.63,17V43.44Z" transform="translate(-14.01 -10.64)"/></svg>