<?xml version="1.0" encoding="utf-8"?>
<!-- Generator: Adobe Illustrator 26.0.0, SVG Export Plug-In . SVG Version: 6.00 Build 0)  -->
<svg version="1.1" id="Layer_1" xmlns="http://www.w3.org/2000/svg" xmlns:xlink="http://www.w3.org/1999/xlink" x="0px" y="0px"
	 viewBox="0 0 144.9 136.8" style="enable-background:new 0 0 144.9 136.8;" xml:space="preserve">
<style type="text/css">
	.st0{fill:#232323;}
</style>
<g>
	<path class="st0" d="M137.5,68.7l-0.1,25.9L35.1,94.4c-3.9,0-5.8,1.5-5.8,4.5s1.9,4.5,5.6,4.5l102.5,0.2l-0.1,25.9L9.8,129.3
		l0.1-25.9h4.3c-3.4-3.5-5.1-8.8-5.1-16.1c0-4.7,1.6-9,4.7-12.9s7.6-5.9,13.5-5.9L137.5,68.7z"/>
	<path class="st0" d="M137.8,2.3l-0.1,26L35.3,28c-3.9,0-5.8,1.5-5.8,4.5s1.9,4.5,5.6,4.5l102.5,0.2l-0.1,26L10.1,62.9l0.1-26h4.3
		c-3.4-3.5-5.1-8.8-5.1-16.1c0-4.7,1.6-9,4.7-12.9S21.7,2,27.6,2L137.8,2.3z"/>
</g>
</svg>
